HIERARCHY
ROOT Hips
{
	OFFSET 0.0000 0.0000 0.0000
	CHANNELS 6 Xposition Yposition Zposition Zrotation Xrotation Yrotation
	JOINT LeftUpperLeg
	{
		OFFSET 8.0000 0.0000 0.0000
		CHANNELS 3 Zrotation Xrotation Yrotation
		JOINT LeftLowerLeg
		{
			OFFSET 0.0000 -42.0000 0.0000
			CHANNELS 3 Zrotation Xrotation Yrotation
			JOINT LeftFoot
			{
				OFFSET 0.0000 -42.0000 0.0000
				CHANNELS 3 Zrotation Xrotation Yrotation
				JOINT LeftToe
				{
					OFFSET 0.0000 -8.0000 10.0000
					CHANNELS 3 Zrotation Xrotation Yrotation
					End Site
					{
						OFFSET 0.0000 5.0000 0.0000
					}
				}
			}
		}
	}
	JOINT RightUpperLeg
	{
		OFFSET -8.0000 0.0000 0.0000
		CHANNELS 3 Zrotation Xrotation Yrotation
		JOINT RightLowerLeg
		{
			OFFSET 0.0000 -42.0000 0.0000
			CHANNELS 3 Zrotation Xrotation Yrotation
			JOINT RightFoot
			{
				OFFSET 0.0000 -42.0000 0.0000
				CHANNELS 3 Zrotation Xrotation Yrotation
				JOINT RightToe
				{
					OFFSET 0.0000 -8.0000 10.0000
					CHANNELS 3 Zrotation Xrotation Yrotation
					End Site
					{
						OFFSET 0.0000 5.0000 0.0000
					}
				}
			}
		}
	}
	JOINT Spine
	{
		OFFSET 0.0000 8.0000 0.0000
		CHANNELS 3 Zrotation Xrotation Yrotation
		JOINT Spine1
		{
			OFFSET 0.0000 9.0000 0.0000
			CHANNELS 3 Zrotation Xrotation Yrotation
			JOINT Spine2
			{
				OFFSET 0.0000 9.0000 0.0000
				CHANNELS 3 Zrotation Xrotation Yrotation
				JOINT Neck
				{
					OFFSET 0.0000 20.0000 0.0000
					CHANNELS 3 Zrotation Xrotation Yrotation
					JOINT Head
					{
						OFFSET 0.0000 10.0000 0.0000
						CHANNELS 3 Zrotation Xrotation Yrotation
						JOINT Jaw
						{
							OFFSET 0.0000 -4.0000 5.0000
							CHANNELS 3 Zrotation Xrotation Yrotation
							End Site
							{
								OFFSET 0.0000 5.0000 0.0000
							}
						}
						JOINT LeftEye
						{
							OFFSET 3.0000 5.0000 7.0000
							CHANNELS 3 Zrotation Xrotation Yrotation
							End Site
							{
								OFFSET 0.0000 5.0000 0.0000
							}
						}
						JOINT RightEye
						{
							OFFSET -3.0000 5.0000 7.0000
							CHANNELS 3 Zrotation Xrotation Yrotation
							End Site
							{
								OFFSET 0.0000 5.0000 0.0000
							}
						}
					}
				}
				JOINT LeftShoulder
				{
					OFFSET 5.0000 18.0000 0.0000
					CHANNELS 3 Zrotation Xrotation Yrotation
					JOINT LeftUpperArm
					{
						OFFSET 15.0000 0.0000 0.0000
						CHANNELS 3 Zrotation Xrotation Yrotation
						JOINT LeftLowerArm
						{
							OFFSET 28.0000 0.0000 0.0000
							CHANNELS 3 Zrotation Xrotation Yrotation
							JOINT LeftHand
							{
								OFFSET 25.0000 0.0000 0.0000
								CHANNELS 3 Zrotation Xrotation Yrotation
								JOINT LeftIndexProximal
								{
									OFFSET 5.0000 -1.0000 1.0000
									CHANNELS 3 Zrotation Xrotation Yrotation
									JOINT LeftIndexIntermediate
									{
										OFFSET 4.0000 0.0000 0.0000
										CHANNELS 3 Zrotation Xrotation Yrotation
										JOINT LeftIndexDistal
										{
											OFFSET 3.0000 0.0000 0.0000
											CHANNELS 3 Zrotation Xrotation Yrotation
											End Site
											{
												OFFSET 0.0000 5.0000 0.0000
											}
										}
									}
								}
								JOINT LeftMiddleProximal
								{
									OFFSET 5.0000 0.0000 0.0000
									CHANNELS 3 Zrotation Xrotation Yrotation
									JOINT LeftMiddleIntermediate
									{
										OFFSET 4.0000 0.0000 0.0000
										CHANNELS 3 Zrotation Xrotation Yrotation
										JOINT LeftMiddleDistal
										{
											OFFSET 3.0000 0.0000 0.0000
											CHANNELS 3 Zrotation Xrotation Yrotation
											End Site
											{
												OFFSET 0.0000 5.0000 0.0000
											}
										}
									}
								}
								JOINT LeftLittleProximal
								{
									OFFSET 5.0000 1.5000 0.0000
									CHANNELS 3 Zrotation Xrotation Yrotation
									JOINT LeftLittleIntermediate
									{
										OFFSET 3.0000 0.0000 0.0000
										CHANNELS 3 Zrotation Xrotation Yrotation
										JOINT LeftLittleDistal
										{
											OFFSET 2.0000 0.0000 0.0000
											CHANNELS 3 Zrotation Xrotation Yrotation
											End Site
											{
												OFFSET 0.0000 5.0000 0.0000
											}
										}
									}
								}
								JOINT LeftRingProximal
								{
									OFFSET 5.0000 0.8000 0.0000
									CHANNELS 3 Zrotation Xrotation Yrotation
									JOINT LeftRingIntermediate
									{
										OFFSET 4.0000 0.0000 0.0000
										CHANNELS 3 Zrotation Xrotation Yrotation
										JOINT LeftRingDistal
										{
											OFFSET 3.0000 0.0000 0.0000
											CHANNELS 3 Zrotation Xrotation Yrotation
											End Site
											{
												OFFSET 0.0000 5.0000 0.0000
											}
										}
									}
								}
								JOINT LeftThumbProximal
								{
									OFFSET 3.0000 -2.0000 2.0000
									CHANNELS 3 Zrotation Xrotation Yrotation
									JOINT LeftThumbIntermediate
									{
										OFFSET 3.0000 0.0000 0.0000
										CHANNELS 3 Zrotation Xrotation Yrotation
										JOINT LeftThumbDistal
										{
											OFFSET 2.5000 0.0000 0.0000
											CHANNELS 3 Zrotation Xrotation Yrotation
											End Site
											{
												OFFSET 0.0000 5.0000 0.0000
											}
										}
									}
								}
							}
						}
					}
				}
				JOINT RightShoulder
				{
					OFFSET -5.0000 18.0000 0.0000
					CHANNELS 3 Zrotation Xrotation Yrotation
					JOINT RightUpperArm
					{
						OFFSET -15.0000 0.0000 0.0000
						CHANNELS 3 Zrotation Xrotation Yrotation
						JOINT RightLowerArm
						{
							OFFSET -28.0000 0.0000 0.0000
							CHANNELS 3 Zrotation Xrotation Yrotation
							JOINT RightHand
							{
								OFFSET -25.0000 0.0000 0.0000
								CHANNELS 3 Zrotation Xrotation Yrotation
								JOINT RightIndexProximal
								{
									OFFSET -5.0000 -1.0000 1.0000
									CHANNELS 3 Zrotation Xrotation Yrotation
									JOINT RightIndexIntermediate
									{
										OFFSET -4.0000 0.0000 0.0000
										CHANNELS 3 Zrotation Xrotation Yrotation
										JOINT RightIndexDistal
										{
											OFFSET -3.0000 0.0000 0.0000
											CHANNELS 3 Zrotation Xrotation Yrotation
											End Site
											{
												OFFSET 0.0000 5.0000 0.0000
											}
										}
									}
								}
								JOINT RightMiddleProximal
								{
									OFFSET -5.0000 0.0000 0.0000
									CHANNELS 3 Zrotation Xrotation Yrotation
									JOINT RightMiddleIntermediate
									{
										OFFSET -4.0000 0.0000 0.0000
										CHANNELS 3 Zrotation Xrotation Yrotation
										JOINT RightMiddleDistal
										{
											OFFSET -3.0000 0.0000 0.0000
											CHANNELS 3 Zrotation Xrotation Yrotation
											End Site
											{
												OFFSET 0.0000 5.0000 0.0000
											}
										}
									}
								}
								JOINT RightLittleProximal
								{
									OFFSET -5.0000 1.5000 0.0000
									CHANNELS 3 Zrotation Xrotation Yrotation
									JOINT RightLittleIntermediate
									{
										OFFSET -3.0000 0.0000 0.0000
										CHANNELS 3 Zrotation Xrotation Yrotation
										JOINT RightLittleDistal
										{
											OFFSET -2.0000 0.0000 0.0000
											CHANNELS 3 Zrotation Xrotation Yrotation
											End Site
											{
												OFFSET 0.0000 5.0000 0.0000
											}
										}
									}
								}
								JOINT RightRingProximal
								{
									OFFSET -5.0000 0.8000 0.0000
									CHANNELS 3 Zrotation Xrotation Yrotation
									JOINT RightRingIntermediate
									{
										OFFSET -4.0000 0.0000 0.0000
										CHANNELS 3 Zrotation Xrotation Yrotation
										JOINT RightRingDistal
										{
											OFFSET -3.0000 0.0000 0.0000
											CHANNELS 3 Zrotation Xrotation Yrotation
											End Site
											{
												OFFSET 0.0000 5.0000 0.0000
											}
										}
									}
								}
								JOINT RightThumbProximal
								{
									OFFSET -3.0000 -2.0000 2.0000
									CHANNELS 3 Zrotation Xrotation Yrotation
									JOINT RightThumbIntermediate
									{
										OFFSET -3.0000 0.0000 0.0000
										CHANNELS 3 Zrotation Xrotation Yrotation
										JOINT RightThumbDistal
										{
											OFFSET -2.5000 0.0000 0.0000
											CHANNELS 3 Zrotation Xrotation Yrotation
											End Site
											{
												OFFSET 0.0000 5.0000 0.0000
											}
										}
									}
								}
							}
						}
					}
				}
			}
		}
	}
}
MOTION
Frames: 5
Frame Time: 0.033333
0.220643 36.639458 -1.229638 178.842808 87.051095 2.997649 4.521885 9.527157 -1.196833 -1.564350 -12.316865 2.880831 -3.076177 1.704948 -8.765330 -3.662367 -7.098032 -11.368102 -2.653927 10.074109 0.657849 0.501174 -11.128600 -6.636436 -5.264704 -2.443774 14.715872 9.184073 1.342770 -10.851704 -1.102543 -2.428726 -0.487023 -0.734000 2.147823 1.391963 0.953134 7.216671 1.628232 -4.547277 3.086415 -1.400304 5.265943 12.970752 4.268248 -0.000000 0.000000 0.000000 -0.000000 0.000000 0.000000 -0.000000 0.000000 0.000000 24.160749 -0.110655 -6.735196 52.437278 14.940166 11.312655 -5.409743 25.349341 25.966644 5.780551 6.164158 -0.134810 -0.000000 0.000000 0.000000 -0.000000 0.000000 0.000000 -0.000000 0.000000 0.000000 -0.000000 0.000000 0.000000 -0.000000 0.000000 0.000000 -0.000000 0.000000 0.000000 -0.000000 0.000000 0.000000 -0.000000 0.000000 0.000000 -0.000000 0.000000 0.000000 -0.000000 0.000000 0.000000 -0.000000 0.000000 0.000000 -0.000000 0.000000 0.000000 -0.000000 0.000000 0.000000 -0.000000 0.000000 0.000000 -0.000000 0.000000 0.000000 -26.923109 -2.630446 0.791413 -52.451323 22.258557 -8.629067 1.265609 9.919730 -19.859788 -3.573641 5.929971 0.432127 -0.000000 0.000000 0.000000 -0.000000 0.000000 0.000000 -0.000000 0.000000 0.000000 -0.000000 0.000000 0.000000 -0.000000 0.000000 0.000000 -0.000000 0.000000 0.000000 -0.000000 0.000000 0.000000 -0.000000 0.000000 0.000000 -0.000000 0.000000 0.000000 -0.000000 0.000000 0.000000 -0.000000 0.000000 0.000000 -0.000000 0.000000 0.000000 -0.000000 0.000000 0.000000 -0.000000 0.000000 0.000000 -0.000000 0.000000 0.000000
0.303728 36.558922 -1.252672 179.234219 87.078514 2.969453 4.934394 9.286257 -1.255284 -1.856872 -11.925986 2.397061 -3.938709 1.543870 -9.128544 -3.362026 -7.264254 -11.746558 -2.490067 9.691989 0.458526 0.339584 -10.647305 -6.906908 -5.327012 -2.625808 14.431400 8.904589 1.382474 -10.701890 -1.397512 -2.462698 -0.564004 -0.564860 2.201713 0.928278 1.141921 7.276082 1.425507 -4.344380 3.162696 -2.254233 6.080058 12.786509 3.449080 -0.000000 0.000000 0.000000 -0.000000 0.000000 0.000000 -0.000000 0.000000 0.000000 24.098669 -0.610884 -7.155003 52.263240 14.915961 11.291186 -5.233750 24.867057 25.745949 6.164107 6.560231 -0.546362 -0.000000 0.000000 0.000000 -0.000000 0.000000 0.000000 -0.000000 0.000000 0.000000 -0.000000 0.000000 0.000000 -0.000000 0.000000 0.000000 -0.000000 0.000000 0.000000 -0.000000 0.000000 0.000000 -0.000000 0.000000 0.000000 -0.000000 0.000000 0.000000 -0.000000 0.000000 0.000000 -0.000000 0.000000 0.000000 -0.000000 0.000000 0.000000 -0.000000 0.000000 0.000000 -0.000000 0.000000 0.000000 -0.000000 0.000000 0.000000 -27.041848 -2.907476 0.969100 -52.187536 22.523758 -8.834180 0.547209 9.555644 -19.197991 -3.694051 6.108013 0.896701 -0.000000 0.000000 0.000000 -0.000000 0.000000 0.000000 -0.000000 0.000000 0.000000 -0.000000 0.000000 0.000000 -0.000000 0.000000 0.000000 -0.000000 0.000000 0.000000 -0.000000 0.000000 0.000000 -0.000000 0.000000 0.000000 -0.000000 0.000000 0.000000 -0.000000 0.000000 0.000000 -0.000000 0.000000 0.000000 -0.000000 0.000000 0.000000 -0.000000 0.000000 0.000000 -0.000000 0.000000 0.000000 -0.000000 0.000000 0.000000
0.387895 36.478878 -1.255206 179.725722 87.134216 2.939809 5.341538 9.074751 -1.307419 -2.098819 -11.663011 1.981996 -4.651070 1.399717 -9.373476 -3.086469 -7.384792 -12.123724 -2.311308 9.184008 0.268955 0.172431 -9.941317 -7.196663 -5.379677 -2.861624 14.018235 8.593479 1.382004 -10.680345 -1.717128 -2.415055 -0.689272 -0.363121 2.246640 0.412472 1.320839 7.345786 1.196030 -4.144402 3.223224 -2.959860 6.827537 12.513812 2.888092 -0.000000 0.000000 0.000000 -0.000000 0.000000 0.000000 -0.000000 0.000000 0.000000 24.002177 -1.160325 -7.540087 52.167880 15.060760 11.234845 -5.163683 24.264644 25.898152 6.614776 6.921500 -0.991482 -0.000000 0.000000 0.000000 -0.000000 0.000000 0.000000 -0.000000 0.000000 0.000000 -0.000000 0.000000 0.000000 -0.000000 0.000000 0.000000 -0.000000 0.000000 0.000000 -0.000000 0.000000 0.000000 -0.000000 0.000000 0.000000 -0.000000 0.000000 0.000000 -0.000000 0.000000 0.000000 -0.000000 0.000000 0.000000 -0.000000 0.000000 0.000000 -0.000000 0.000000 0.000000 -0.000000 0.000000 0.000000 -0.000000 0.000000 0.000000 -27.222814 -3.015661 0.941448 -51.971692 22.731686 -9.071716 -0.226429 9.236874 -18.573422 -4.042149 6.346089 1.202650 -0.000000 0.000000 0.000000 -0.000000 0.000000 0.000000 -0.000000 0.000000 0.000000 -0.000000 0.000000 0.000000 -0.000000 0.000000 0.000000 -0.000000 0.000000 0.000000 -0.000000 0.000000 0.000000 -0.000000 0.000000 0.000000 -0.000000 0.000000 0.000000 -0.000000 0.000000 0.000000 -0.000000 0.000000 0.000000 -0.000000 0.000000 0.000000 -0.000000 0.000000 0.000000 -0.000000 0.000000 0.000000 -0.000000 0.000000 0.000000
0.462321 36.401485 -1.254109 -179.853281 87.262598 2.903384 5.686593 8.852574 -1.341671 -2.307577 -11.588186 1.660230 -5.205593 1.430332 -9.579154 -2.857744 -7.490777 -12.352125 -2.165344 8.578751 0.103310 0.057430 -9.123823 -7.380190 -5.404081 -3.084794 13.655947 8.288338 1.379028 -10.597014 -1.971330 -2.348676 -0.785591 -0.162577 2.227178 -0.066750 1.456020 7.407580 0.991119 -4.002712 3.116753 -3.573713 7.392623 12.227055 2.415889 -0.000000 0.000000 0.000000 -0.000000 0.000000 0.000000 -0.000000 0.000000 0.000000 23.822212 -1.613227 -7.931799 52.000055 14.978299 11.235137 -5.206913 23.758767 26.029557 6.915779 7.167244 -1.360280 -0.000000 0.000000 0.000000 -0.000000 0.000000 0.000000 -0.000000 0.000000 0.000000 -0.000000 0.000000 0.000000 -0.000000 0.000000 0.000000 -0.000000 0.000000 0.000000 -0.000000 0.000000 0.000000 -0.000000 0.000000 0.000000 -0.000000 0.000000 0.000000 -0.000000 0.000000 0.000000 -0.000000 0.000000 0.000000 -0.000000 0.000000 0.000000 -0.000000 0.000000 0.000000 -0.000000 0.000000 0.000000 -0.000000 0.000000 0.000000 -27.397767 -3.082698 0.855689 -51.778383 22.886260 -9.339057 -0.882584 8.792428 -18.040707 -4.507831 6.507184 1.371741 -0.000000 0.000000 0.000000 -0.000000 0.000000 0.000000 -0.000000 0.000000 0.000000 -0.000000 0.000000 0.000000 -0.000000 0.000000 0.000000 -0.000000 0.000000 0.000000 -0.000000 0.000000 0.000000 -0.000000 0.000000 0.000000 -0.000000 0.000000 0.000000 -0.000000 0.000000 0.000000 -0.000000 0.000000 0.000000 -0.000000 0.000000 0.000000 -0.000000 0.000000 0.000000 -0.000000 0.000000 0.000000 -0.000000 0.000000 0.000000
0.548781 36.378094 -1.258219 -179.278421 87.442205 2.666272 5.917619 8.548677 -1.312403 -2.457459 -11.553728 1.399413 -5.527500 1.521868 -9.660639 -2.707894 -7.632904 -12.520640 -2.048548 7.929005 -0.054763 -0.038648 -8.336394 -7.504390 -5.437533 -3.255852 13.329196 8.025363 1.348764 -10.513160 -2.180926 -2.123066 -0.895489 0.021909 2.155772 -0.461155 1.546881 7.512938 0.795752 -3.854189 3.012170 -4.084771 7.815586 11.950374 2.028473 -0.000000 0.000000 0.000000 -0.000000 0.000000 0.000000 -0.000000 0.000000 0.000000 23.689101 -2.024055 -8.232480 51.751817 14.942863 11.230034 -5.308733 23.179002 26.200427 7.155863 7.327474 -1.661555 -0.000000 0.000000 0.000000 -0.000000 0.000000 0.000000 -0.000000 0.000000 0.000000 -0.000000 0.000000 0.000000 -0.000000 0.000000 0.000000 -0.000000 0.000000 0.000000 -0.000000 0.000000 0.000000 -0.000000 0.000000 0.000000 -0.000000 0.000000 0.000000 -0.000000 0.000000 0.000000 -0.000000 0.000000 0.000000 -0.000000 0.000000 0.000000 -0.000000 0.000000 0.000000 -0.000000 0.000000 0.000000 -0.000000 0.000000 0.000000 -27.643589 -3.120754 0.760963 -51.601404 23.040950 -9.635115 -1.398595 8.538280 -17.579913 -4.956808 6.886065 1.598816 -0.000000 0.000000 0.000000 -0.000000 0.000000 0.000000 -0.000000 0.000000 0.000000 -0.000000 0.000000 0.000000 -0.000000 0.000000 0.000000 -0.000000 0.000000 0.000000 -0.000000 0.000000 0.000000 -0.000000 0.000000 0.000000 -0.000000 0.000000 0.000000 -0.000000 0.000000 0.000000 -0.000000 0.000000 0.000000 -0.000000 0.000000 0.000000 -0.000000 0.000000 0.000000 -0.000000 0.000000 0.000000 -0.000000 0.000000 0.000000
